# xmcd
#
# Track frame offsets:
#	187
#	27062
#	52412
#	85452
#	100922
#	129535
#	148667
#
# Disc length: 2240 seconds
#
# Revision: 4
# Processed by: cddbd v1.5PL3 Copyright (c) Steve Scherf et al.
# Submitted via: CDex 1.50Beta5
#
DISCID=6208be07
DTITLE=The Modern Jazz Quartet - Plays George Gershwin's "Porgy and Bess"
DYEAR=1964
DGENRE=Jazz
TTITLE0=Summertime
TTITLE1=Bess, You Is My Woman Now
TTITLE2=My Man's Gone Now
TTITLE3=I Loves You, Porgy
TTITLE4=It Ain't Necessarily So
TTITLE5=Oh Bess, Oh Where's My Bess?
TTITLE6=There's a Boat That's Leavin' Soon for New York
EXTD=
EXTT0=
EXTT1=
EXTT2=
EXTT3=
EXTT4=
EXTT5=
EXTT6=
PLAYORDER=
